<svg xmlns="http://www.w3.org/2000/svg" viewBox="0 0 24 24" aria-label="Discover" role="img" class="sp-checkout-payment-section__icon"><path d="M22 4H2a2 2 0 00-2 2v12a2 2 0 002 2h20a2 2 0 002-2V6a2 2 0 00-2-2z" fill="#fff"></path><path fill-rule="evenodd" clip-rule="evenodd" d="M21.85 4H1.904l-.207.004a2.883 2.883 0 00-.451.041 1.473 1.473 0 00-1.06.804 1.63 1.63 0 00-.142.447 3.262 3.262 0 00-.04.47L0 5.982v12.037l.003.216c.005.156.013.314.04.47.027.157.072.303.142.446a1.47 1.47 0 001.06.804c.148.028.3.037.45.042l.208.003h20.194l.207-.003a2.92 2.92 0 00.451-.042 1.468 1.468 0 001.06-.804c.07-.143.115-.29.142-.447a3.25 3.25 0 00.04-.47l.003-.216V5.982c0-.072-.002-.144-.004-.216a3.23 3.23 0 00-.04-.47 1.61 1.61 0 00-.14-.447 1.478 1.478 0 00-.632-.656 1.48 1.48 0 00-.429-.148 2.841 2.841 0 00-.45-.041L22.095 4h-.245" fill="#CCC"></path><path d="M22 4.5H2A1.5 1.5 0 00.5 6v12A1.5 1.5 0 002 19.5h20a1.5 1.5 0 001.5-1.5V6A1.5 1.5 0 0022 4.5z" fill="#fff"></path><path d="M14.507 10.097l.836 2.107.847-2.107h.663l-1.355 3.218h-.33l-1.33-3.218h.669zm-7.663-.052c.295 0 .568.086.806.256l.116.092-.32.42c-.159-.18-.31-.256-.493-.256-.265 0-.456.15-.456.348 0 .151.085.239.362.352l.113.043c.696.255.902.48.902.98 0 .607-.446 1.03-1.082 1.03-.414 0-.727-.145-.99-.468l-.097-.13.396-.38a.72.72 0 00.667.418c.273 0 .476-.188.476-.442a.375.375 0 00-.183-.325 1.981 1.981 0 00-.313-.138l-.11-.04c-.575-.207-.773-.428-.773-.86 0-.515.423-.9.979-.9zm2.893-.02c.21 0 .394.037.596.12l.157.073v.72c-.255-.248-.476-.353-.768-.353-.574 0-1.025.475-1.025 1.078 0 .635.438 1.082 1.053 1.082a.918.918 0 00.636-.246l.104-.097v.72c-.28.131-.505.183-.768.183-.932 0-1.655-.715-1.655-1.637a1.65 1.65 0 011.67-1.643zm-6.839.072c.992 0 1.684.645 1.685 1.57 0 .461-.212.909-.57 1.204-.264.22-.56.333-.947.358l-.173.005H2v-3.137h.898zm2.577 0v3.137h-.612v-3.137h.612zm13.39 0v.53h-1.123v.698h1.082v.53h-1.082v.848h1.123v.53h-1.734v-3.136h1.735zm1.314 0c.706 0 1.11.338 1.11.926 0 .436-.21.736-.594.859l-.12.03.987 1.322h-.752l-.848-1.26h-.08v1.26h-.61v-3.137h.907zm-17.404.53H2.61v2.076h.164c.395 0 .644-.076.837-.25.212-.188.34-.49.34-.791 0-.3-.128-.593-.34-.78-.177-.161-.383-.235-.696-.25l-.141-.004zm17.297-.037h-.188v.95h.178c.39 0 .597-.17.597-.484 0-.272-.163-.428-.467-.46l-.12-.006z"></path><path d="M14.022 11.668a1.668 1.668 0 11-3.336 0 1.668 1.668 0 013.336 0zm9.478 2.855c-1.677 1.012-5.894 3.283-12.368 4.977H22a1.5 1.5 0 001.5-1.5v-3.477z" fill="#F58025"></path></svg>