<svg xmlns="http://www.w3.org/2000/svg" viewBox="0 0 24 24" aria-label="MasterCard" role="img" class="sp-checkout-payment-section__icon"><path d="M0 6.275A2.274 2.274 0 012.28 4h19.44A2.282 2.282 0 0124 6.275v11.45A2.274 2.274 0 0121.72 20H2.28A2.282 2.282 0 010 17.725V6.275z" fill="#293746"></path><path d="M14.322 8.064H9.596v7.72h4.726v-7.72z" fill="#FF5F00"></path><path d="M10.083 11.925a4.9 4.9 0 011.875-3.859 4.91 4.91 0 100 7.72 4.9 4.9 0 01-1.875-3.86z" fill="#EB001B"></path><path d="M19.9 11.925a4.91 4.91 0 01-7.942 3.86 4.909 4.909 0 000-7.72 4.91 4.91 0 017.943 3.859v.001z" fill="#F79E1B"></path></svg>