<svg xmlns="http://www.w3.org/2000/svg" viewBox="0 0 24 24" aria-label="American Express" role="img" class="sp-checkout-payment-section__icon"><path d="M0 5.994A2 2 0 012.005 4h19.99A2 2 0 0124 5.994v12.012A2 2 0 0121.995 20H2.005A2 2 0 010 18.006V5.994z" fill="#0079C1"></path><path d="M18.82 12.341l-.222.484h-.947c-.112 0-.194.067-.194.167 0 .104.082.17.194.17h.524c.435 0 .685.229.685.618 0 .411-.283.691-.761.691h-1.144v-.484h1.14c.117 0 .196-.066.196-.17 0-.103-.08-.17-.195-.17h-.523c-.418 0-.685-.235-.685-.636 0-.384.277-.67.76-.67h1.172zm-5.032 0c.469 0 .761.28.761.688 0 .335-.213.596-.57.672l.707.77h-.706l-.649-.745h-.207v.745h-.569v-2.13h1.233zm-5.42 0l.554.642.554-.642h.724l-.925 1.04.962 1.09h-.743l-.58-.675-.582.675h-.725l.956-1.077-.937-1.053h.742zm8.28 0v.484h-1.232v.338h1.202v.483h-1.202v.341h1.233v.484h-1.802v-2.13h1.802zm-5.097 0c.469 0 .761.292.761.718 0 .414-.298.718-.779.718h-.66v.694h-.57v-2.13h1.248zm9.362 0l-.223.484h-.946c-.113 0-.195.067-.195.167 0 .104.082.17.195.17h.524c.435 0 .684.229.684.618 0 .411-.283.691-.76.691h-1.145v-.484h1.141c.116 0 .195-.066.195-.17 0-.103-.079-.17-.195-.17h-.523c-.417 0-.685-.235-.685-.636 0-.384.277-.67.761-.67h1.172zm-13.388 0v.484H6.293v.338h1.202v.483H6.293v.341h1.232v.484H5.724v-2.13h1.801zm3.96.484h-.612v.468h.611c.17 0 .256-.103.256-.23 0-.132-.085-.238-.256-.238zm2.236 0h-.596v.429h.596c.17 0 .256-.095.256-.213 0-.116-.085-.216-.256-.216zm.223-3.225v2.13h-.57V9.6h.57zm-1.629 0c.47 0 .761.28.761.688 0 .335-.213.596-.569.672l.706.77h-.706l-.648-.745h-.207v.745h-.57V9.6h1.233zm3.674 0v.5h-.633c-.365 0-.542.227-.542.544v.04c0 .37.213.563.554.563h.335l-.229.483h-.194c-.627 0-1.035-.383-1.035-1.043v-.043c0-.594.36-1.044 1.062-1.044h.682zm-11.312 0l.94 2.13h-.642l-.183-.432h-.986l-.18.432H3l.94-2.13h.737zm1.941 0l.487 1.342L7.59 9.6h.886v2.13h-.56v-1.533l-.563 1.533h-.505l-.563-1.533v1.533h-.56V9.6h.894zm4.093 0v.484H9.48v.338h1.202v.484H9.479v.34h1.232v.484H8.91V9.6h1.801zm6.705 0l.94 2.13h-.642l-.183-.432h-.986l-.18.432h-.626l.94-2.13h.737zm1.765 0l.867 1.3V9.6h.564v2.13h-.688l-.895-1.348v1.348h-.566V9.6h.718zM4.3 10.118l-.3.711h.597l-.298-.711zm12.739 0l-.299.711h.597l-.298-.711zm-4.79-.034h-.597v.429h.597c.17 0 .255-.094.255-.213 0-.116-.085-.216-.255-.216z" fill="#fff"></path></svg>