<svg xmlns="http://www.w3.org/2000/svg" fill="none" viewBox="0 0 24 24" aria-label="Visa" role="img" class="sp-checkout-payment-section__icon"><path d="M2 4h20a2 2 0 012 2v12a2 2 0 01-2 2H2a2 2 0 01-2-2V6a2 2 0 012-2z" fill="#fff"></path><path fill-rule="evenodd" clip-rule="evenodd" d="M2.005 4.5A1.5 1.5 0 00.5 5.994v12.012A1.5 1.5 0 002.005 19.5h19.99a1.5 1.5 0 001.505-1.494V5.994A1.5 1.5 0 0021.995 4.5H2.005zm0-.5A2 2 0 000 5.994v12.012A2 2 0 002.005 20h19.99A2 2 0 0024 18.006V5.994A2 2 0 0021.995 4H2.005z" fill="#CCC"></path><g clip-path="url(#a)"><path d="M9.834 9.103L7.478 14.75H5.94l-1.16-4.506c-.07-.277-.131-.379-.345-.496-.35-.19-.927-.369-1.435-.48l.034-.164H5.51c.316 0 .6.211.671.576l.613 3.267 1.513-3.843h1.528zm6.024 3.803c.007-1.49-2.052-1.572-2.037-2.238.004-.203.196-.418.617-.473a2.734 2.734 0 011.433.253l.256-1.198c-.35-.127-.8-.25-1.36-.25-1.438 0-2.45.767-2.458 1.867-.01.812.722 1.266 1.273 1.536.567.277.757.454.755.702-.004.378-.452.546-.871.552-.731.012-1.155-.198-1.494-.356l-.263 1.237c.34.156.967.293 1.617.3 1.528 0 2.528-.758 2.532-1.932zm3.797 1.843H21l-1.174-5.646h-1.242a.662.662 0 00-.619.414l-2.182 5.232h1.527l.303-.843h1.866l.176.843zm-1.623-2l.765-2.12.441 2.12h-1.206zm-6.12-3.646L10.71 14.75H9.255l1.204-5.646h1.454z" fill="#1434CB"></path></g><defs><clipPath id="a"><path fill="#fff" transform="translate(3 9)" d="M0 0h18v5.838H0z"></path></clipPath></defs></svg>