<svg width="136" height="135" viewBox="0 0 136 135" fill="none" xmlns="http://www.w3.org/2000/svg">
<mask id="mask0" mask-type="alpha" maskUnits="userSpaceOnUse" x="0" y="0" width="136" height="135">
<path d="M67.5312 0C30.2523 0 0.03125 30.2211 0.03125 67.5C0.03125 104.779 30.2523 135 67.5312 135C104.81 135 135.031 104.779 135.031 67.5C135.031 30.2211 104.81 0 67.5312 0Z" fill="#EC1F27"/>
</mask>
<g mask="url(#mask0)">
<path d="M67.5312 135C104.81 135 135.031 104.779 135.031 67.5C135.031 30.2208 104.81 0 67.5312 0C30.252 0 0.03125 30.2208 0.03125 67.5C0.03125 104.779 30.252 135 67.5312 135Z" fill="#EC1F27"/>
<path d="M48.2272 90.5851C16.2025 86.8051 -13.3936 105.57 -13.3652 138.24C-13.3504 156.079 126.778 160.245 126.778 160.245C126.778 160.245 142.168 95.8285 98.7172 86.8051" fill="#0C9046"/>
<path d="M128.259 162.179L126.723 162.134C126.372 162.124 91.2287 161.054 56.5364 157.814C36.1177 155.907 19.8313 153.63 8.13217 151.049C1.09057 149.496 -4.38638 147.802 -8.14883 146.015C-12.9278 143.744 -15.2512 141.202 -15.2539 138.241C-15.2606 130.936 -13.835 124.074 -11.0203 117.847C-8.32432 111.905 -4.40172 106.601 0.489819 102.283C6.41902 97.0082 13.9115 92.9866 22.1587 90.6538C30.4058 88.321 39.4873 87.65 48.4486 88.7084L48.0058 92.4615C30.7258 90.423 14.3273 95.0264 3.00217 105.107C-6.48023 113.543 -11.486 125 -11.4752 138.24C-11.4752 139.32 -9.99968 143.178 8.93947 147.358C20.486 149.907 36.6145 152.157 56.8726 154.05C87.2854 156.885 118.057 158.058 125.262 158.305C126.501 152.034 127.24 145.674 127.472 139.286C127.835 128.83 126.816 114.078 119.889 103.176C115.008 95.4976 107.762 90.612 98.3324 88.6558L99.1019 84.9541C109.567 87.1276 117.635 92.5789 123.083 101.154C126.392 106.365 128.736 112.764 130.051 120.163C131.09 126.021 131.491 132.525 131.244 139.495C130.824 151.325 128.707 160.303 128.617 160.68L128.259 162.179Z" fill="white"/>
<path d="M72.6314 13.419C72.1562 11.992 70.9304 11.2927 69.9773 10.3329C71.3273 10.0467 72.5639 10.5259 73.251 11.8773C74.1002 13.5472 75.5001 14.1048 77.1944 14.2803C78.0044 14.3653 78.2555 14.1129 78.1164 13.2921C77.9414 12.38 77.6186 11.5026 77.1606 10.6947C76.9055 10.2208 76.653 9.74967 76.2885 9.06657C77.9342 9.96297 78.9332 11.0619 79.2302 12.7116C79.6001 14.7636 79.7445 14.8918 81.756 15.2941C84.456 15.8341 87.1722 16.308 89.532 17.8591C90.072 18.2142 90.3839 17.9023 90.6768 17.4906C91.3819 16.496 92.1891 15.578 93.0852 14.7514C93.8653 14.0141 94.7693 13.42 95.7555 12.9964C97.8588 12.1176 99.7704 12.4564 101.346 14.0683C103.471 16.2432 104.595 18.9283 104.776 21.9456C104.911 24.3297 103.633 26.1994 101.388 27.0918C100.483 27.4522 99.5355 27.7047 98.4542 28.0557C100.373 28.6065 102.032 29.3044 103.384 30.5829C105.949 33.0129 106.616 36.1179 106.452 39.4767C106.317 42.1335 105.301 44.4717 103.708 46.575C102.754 47.8359 102.73 48.1288 103.548 49.5328C107.131 55.6834 110.099 62.0973 111.879 69.0187C112.319 70.7292 112.721 72.4531 112.936 74.2081C113.192 76.3128 112.894 78.3688 112.246 80.3803C111.808 81.7411 111.923 81.9058 113.388 81.9693C113.996 81.9925 114.598 82.0979 115.178 82.2825C116.824 82.8144 117.562 83.9889 117.281 85.6818C116.755 88.8637 114.986 91.2532 112.466 93.1567C112.054 93.4762 111.624 93.7715 111.178 94.041C110.029 94.716 109.231 95.5854 108.941 96.9678C108.671 98.2179 107.749 99.0819 106.657 99.6921C103.417 101.501 99.9135 102.055 96.251 101.747C95.5867 101.693 94.9266 101.596 94.2746 101.458C93.2189 101.231 92.3724 100.699 92.124 99.5679C91.9539 98.7943 91.5597 98.6634 90.8145 98.7498C84.884 99.4369 78.9575 100.2 72.9851 100.418C68.2925 100.59 63.5972 100.669 58.9032 100.784C57.641 100.814 57.5532 100.884 57.4182 102.125C57.2832 103.414 56.5313 104.358 55.6524 105.23C52.5474 108.309 46.7505 109.484 42.9719 107.758C41.5733 107.118 40.3353 106.273 39.9708 104.622C39.8621 104.082 39.8621 103.525 39.9708 102.985C40.28 101.23 39.794 99.9634 37.3127 99.4585C28.7753 97.7184 23.7465 93.7345 23.1377 85.0716C22.68 78.5821 22.946 72.0886 23.4225 65.6059C23.891 59.421 24.7022 53.2668 25.8525 47.1717C26.0334 46.201 25.619 45.4315 25.0128 44.7187C23.2578 42.6532 21.9794 40.3407 21.5028 37.6488C20.9817 34.7463 21.2328 31.9126 22.599 29.2693C25.2612 24.0975 31.3187 22.4761 36.7281 25.4205C39.3876 26.8677 41.3303 28.9872 42.6884 31.6737C43.4673 33.2154 46.4333 34.1914 48.0128 33.4408C48.4691 33.2235 48.6216 32.9346 48.5177 32.4013C47.871 29.0736 48.3611 25.9524 50.2929 23.1106C50.9045 22.2115 50.8734 22.0455 50.0391 21.2989C47.2919 18.8379 46.9341 16.4106 48.9024 13.2826C49.9473 11.6221 51.2514 10.1776 52.8998 9.09762C55.4877 7.39662 57.996 7.74762 60.0413 10.0669C60.9134 11.0524 61.5587 12.181 62.1324 13.3555C62.5374 14.1858 62.8196 14.3005 63.6174 13.8537C64.908 13.1382 66.2972 12.9424 67.7336 13.0302C69.3441 13.1287 70.952 13.2826 72.6314 13.419ZM94.0532 51.624C94.1666 51.0772 94.5864 50.9571 95.0063 50.8288C101.103 48.9685 104.748 43.3552 103.949 37.0588C103.311 32.0382 98.6715 29.3382 93.9965 31.2673C89.0204 33.3207 85.9694 38.2104 86.2745 43.632C86.2811 43.9212 86.2539 44.2103 86.1935 44.4933C86.153 44.7228 86.0517 44.9914 85.8047 45.0157C85.5158 45.0441 85.4564 44.7255 85.4213 44.5257C85.2989 43.9307 85.2271 43.3265 85.2066 42.7194C85.2066 41.1061 84.3197 40.1949 82.886 39.7494C82.0868 39.501 81.2457 39.393 80.4303 39.1999C77.1333 38.4036 73.7799 37.862 70.3998 37.5799C62.3822 36.9522 54.3456 37.0467 46.3131 37.0143C44.6783 37.0143 44.1842 37.5543 44.2544 39.1837C44.2854 39.8844 44.2935 40.581 43.9844 41.2249C43.8332 41.5449 43.7076 42.0957 43.3094 41.9985C42.9665 41.9148 42.9854 41.364 43.0137 40.9995C43.1069 39.7845 43.0988 38.5695 42.8274 37.3666C41.7245 32.4972 39.0974 28.8292 34.313 27.0499C29.7621 25.357 25.6136 27.4833 24.1326 32.107C23.5818 33.8256 23.4333 35.59 23.8086 37.3477C25.0236 43.011 28.0935 47.0124 33.9485 48.4501C34.2185 48.5176 34.4574 48.6148 34.4736 48.9348C34.4939 49.3276 34.1577 49.3155 33.9242 49.3398C32.9481 49.4532 32.0342 49.2358 31.1459 48.82C29.8418 48.2125 29.1627 48.5325 28.8752 49.9284C28.6538 51.0084 28.5201 52.1005 28.3689 53.19C27.6489 58.3623 27.1463 63.5544 26.861 68.7663C26.5613 74.0961 26.3804 79.4313 26.6463 84.7678C26.7665 87.1762 27.3834 89.4847 29.0061 91.3666C31.6454 94.4257 35.3147 95.4166 39.0555 96.2266C39.524 96.3279 39.8048 96.07 39.9047 95.5786C40.1531 94.3636 39.794 93.7912 38.5682 93.6886C37.0074 93.5714 35.4595 93.3203 33.9417 92.938C32.6417 92.5951 31.8357 91.7406 31.5117 90.4608C31.0122 88.4358 31.3916 86.6065 32.7956 85.0297C32.9549 84.8515 33.0885 84.4749 33.3707 84.6247C33.696 84.8002 33.6164 85.1553 33.4895 85.4806C33.1749 86.2906 32.7996 87.0723 32.6376 87.9376C32.3217 89.6278 33.0318 90.8401 34.6775 91.3464C35.5739 91.6164 36.5067 91.6582 37.4301 91.6771C42.6519 91.7905 47.8737 91.7095 53.0901 91.5205C60.7104 91.2505 68.3154 90.7461 75.9051 90.0072C82.3392 89.3754 88.7747 88.7476 95.1561 87.6946C98.6661 87.1141 102.041 86.0638 104.994 83.9889C108.132 81.7857 109.592 78.7711 109.119 74.9196C108.908 73.2831 108.602 71.6603 108.201 70.0596C106.631 63.6201 103.846 57.6814 100.688 51.898C99.8784 50.4252 99.657 50.355 98.0897 51.034C96.8166 51.6024 95.499 51.9939 94.0532 51.6307V51.624ZM74.034 17.7241C74.0124 15.7288 73.517 15.0511 71.8902 14.9458C70.2635 14.8405 68.6502 14.7798 67.0302 14.8014C65.0984 14.8284 63.6917 15.768 62.775 17.4811C62.4591 18.0751 62.4929 18.3195 63.1976 18.5611C66.7751 19.8031 69.5102 22.0333 71.1045 25.5406C71.7714 27.0067 71.4866 27.3334 73.3455 26.383C78.0057 23.9976 83.4192 26.3952 84.5505 31.3038C84.9095 32.8344 84.9288 34.4251 84.6072 35.964C84.5222 36.369 84.5249 36.7186 84.996 36.882C85.4672 37.0453 85.779 36.8455 85.991 36.4351C86.0548 36.3081 86.112 36.1779 86.1624 36.045C86.778 34.4938 87.5421 33.075 88.9542 32.053C89.8614 31.3942 90.2124 30.3615 90.23 29.218C90.2583 27.4036 89.7143 25.6702 89.5145 23.8882C89.2188 21.2503 87.8216 19.3293 85.4928 18.0643C83.997 17.2543 82.3554 16.906 80.7273 16.497C79.6932 16.2378 78.8265 16.3296 78.2798 17.442C78.0341 16.1176 77.6048 15.6964 76.2143 15.4426C74.3823 15.1078 74.871 16.9816 74.034 17.7241ZM70.7724 29.7918C70.7454 27.2565 69.9624 24.8494 68.1035 22.8798C65.2496 19.8585 60.7541 19.2942 56.6433 21.3867C52.7283 23.3806 50.5683 27.4725 51.1826 31.7317C51.3513 32.8941 51.7968 33.3355 52.9376 33.3517C58.0676 33.4354 63.1881 33.6217 68.2871 34.2333C69.4157 34.3683 70.011 33.9322 70.3917 32.8482C70.7198 31.9072 70.7549 30.9217 70.7724 29.7918ZM48.5906 94.1692H46.5035C45.8069 94.1692 45.1116 94.1557 44.415 94.1692C42.6371 94.2111 42.012 94.801 41.9621 96.5992C41.9027 98.743 41.9027 100.888 41.8757 103.032C41.8649 103.901 42.2996 104.456 43.1001 104.728C43.9297 104.992 44.7921 105.139 45.6624 105.165C49.0037 105.33 51.8616 103.959 54.6548 102.37C55.157 102.086 55.2501 101.616 55.1759 101.093C54.9167 99.2587 54.6629 97.4227 54.3834 95.5894C54.2201 94.5202 53.8218 94.1395 52.7634 94.2097C51.3662 94.3056 49.9824 94.2111 48.5906 94.1692ZM61.5695 97.335V97.2675C62.8749 97.2675 64.1831 97.3363 65.4845 97.254C70.3715 96.9502 75.2571 96.633 80.1374 96.2482C83.5124 95.9782 86.8874 95.6191 90.2624 95.2506C91.5206 95.1156 91.8824 94.4838 91.6421 93.1662C91.4558 92.1429 91.0386 91.9134 89.775 92.1361C89.6036 92.1672 89.4348 92.2131 89.2634 92.2333C81.7506 93.1176 74.2176 93.7521 66.6563 94.0221C63.7605 94.1247 60.8648 94.2435 57.969 94.2394C56.2977 94.2394 56.2842 94.1476 56.4165 95.7798C56.426 95.8945 56.4273 96.012 56.4449 96.1254C56.5677 96.9192 56.9592 97.3687 57.8367 97.3404C59.0747 97.3039 60.3234 97.335 61.5695 97.335ZM97.4052 99.5436C100.609 99.4599 103.418 98.2219 106.018 96.4683C107.039 95.7811 107.294 94.7565 106.828 93.5388C106.344 92.2846 106.086 90.99 105.862 89.6764C105.644 88.402 105.278 88.209 104.107 88.7935C102.291 89.6943 100.372 90.3681 98.3921 90.7996C97.2621 91.048 96.1065 91.1709 94.9739 91.4098C93.7292 91.6717 93.4092 92.2306 93.5915 93.4348C93.7548 94.5148 93.956 95.6056 93.9573 96.7113C93.9573 98.847 94.4217 99.3519 96.5466 99.5395C96.8274 99.5611 97.1163 99.5382 97.4052 99.5382V99.5436ZM91.8216 23.0377C92.606 21.6958 93.2945 20.416 94.2044 19.2861C95.8649 17.2233 97.8912 17.5648 98.8241 20.0421C98.9076 20.2583 98.9753 20.4802 99.0266 20.7063C99.468 22.7137 98.6715 24.2554 96.8868 24.7846C95.7231 25.1289 94.5189 25.1032 93.1257 25.1572C93.8547 24.4674 94.6107 24.462 95.3262 24.3202C97.3512 23.9152 98.2247 22.5976 97.7279 20.6847C97.5578 20.0299 97.2648 19.4764 96.5655 19.2969C95.8905 19.1241 95.391 19.4926 94.959 19.9516C94.0977 20.8683 93.501 21.9766 92.8679 23.0404C92.7189 23.2943 92.6442 23.5848 92.652 23.8791C92.6599 24.1733 92.7501 24.4594 92.9124 24.705C93.0987 25.0128 93.1325 25.2288 92.849 25.5082C92.232 26.1157 92.6964 26.2683 93.2418 26.302C95.0665 26.4155 96.8982 26.2971 98.6931 25.9497C101.778 25.3557 103.131 22.954 102.133 19.9827C101.677 18.6232 100.948 17.3961 100.123 16.2445C99.0131 14.6947 97.5794 14.4342 95.9378 15.4062C94.2665 16.3984 92.9556 17.8105 91.7528 19.2955C90.8132 20.4457 91.0224 21.7201 91.8216 23.0377ZM83.4786 34.1266C83.4867 31.6966 82.0139 29.4894 79.7364 28.4566C77.459 27.4239 75.2814 27.6925 73.2632 29.1708C72.7515 29.5474 72.2034 30.0658 72.3506 30.7408C72.4977 31.4158 73.2672 31.3362 73.8086 31.4577C75.0506 31.7385 75.3719 32.0611 75.515 33.2923C75.7053 34.942 75.9996 35.2201 77.6412 35.4523C78.8738 35.6265 80.109 35.8033 81.3254 36.0612C82.8698 36.3865 83.2532 36.1516 83.4368 34.5856C83.4624 34.3845 83.4732 34.182 83.4786 34.1266ZM53.2953 17.6701C53.3709 16.2972 53.9177 15.1456 55.0139 14.3059C56.3193 13.3056 57.9258 13.7092 58.6116 15.2158C58.9208 15.8908 59.1206 16.6252 59.3501 17.3394C59.4851 17.7552 59.7173 18.1291 60.1263 17.7511C60.6488 17.2665 61.2212 16.6441 60.9039 15.8611C60.3113 14.391 59.778 12.8695 58.6872 11.6626C57.3737 10.21 55.4337 9.95892 53.9298 11.1672C52.4259 12.3754 51.1799 13.8361 50.3712 15.5992C49.5626 17.3623 50.2133 19.1794 51.8562 20.1744C52.3544 20.4754 52.7594 20.4255 53.2062 20.0718C53.6531 19.7181 53.7557 19.363 53.5248 18.8568C53.3496 18.4869 53.2707 18.0787 53.2953 17.6701ZM107.53 87.723C107.598 88.5451 107.642 89.505 108.061 90.3865C108.354 91.0062 108.837 91.4395 109.505 90.9954C111.125 89.9154 112.363 88.4655 113.334 86.8104C113.739 86.1273 113.31 85.4887 112.524 85.5157C111.309 85.5576 110.087 85.5562 108.899 85.8451C107.97 86.0638 107.536 86.67 107.53 87.723ZM54.4968 17.7295C54.4847 18.7137 54.6926 18.8824 55.5377 18.711C55.8185 18.6529 56.1033 18.607 56.3855 18.5517C58.2579 18.1885 58.5225 17.7012 57.7868 15.9867C57.371 15.0133 56.4624 14.7717 55.62 15.4318C54.833 16.0393 54.5832 16.9141 54.4968 17.7295ZM95.4477 28.0597C94.8443 27.8599 94.3313 27.6156 93.7575 27.6547C93.4403 27.6736 92.984 27.6115 93.0042 28.1137C93.0218 28.5484 93.4443 28.6254 93.7737 28.6443C94.365 28.674 94.8537 28.3392 95.4477 28.0597Z" fill="#FAFBFA"/>
<path d="M94.0527 51.6307C95.4986 51.9939 96.8162 51.6024 98.1027 51.0435C99.6701 50.3685 99.8982 50.4346 100.701 51.9075C103.859 57.6909 106.641 63.6295 108.214 70.069C108.615 71.6698 108.921 73.2925 109.132 74.929C109.605 78.7806 108.145 81.7951 105.007 83.9983C102.053 86.0733 98.6832 87.1236 95.1692 87.7041C88.7877 88.7571 82.3523 89.3848 75.9182 90.0166C68.3276 90.7627 60.7226 91.2672 53.1032 91.53C47.8854 91.719 42.6636 91.8 37.4432 91.6866C36.5198 91.6677 35.5869 91.6312 34.6905 91.3558C33.0422 90.855 32.3321 89.64 32.648 87.9525C32.81 87.0871 33.188 86.3028 33.4998 85.4955C33.6267 85.1701 33.7064 84.8205 33.381 84.6396C33.0989 84.4884 32.9652 84.865 32.8059 85.0446C31.4019 86.6214 31.0226 88.456 31.5221 90.4756C31.8393 91.7554 32.6453 92.61 33.9521 92.9529C35.4699 93.3352 37.0177 93.5863 38.5785 93.7035C39.8043 93.8101 40.1634 94.3785 39.915 95.5935C39.8151 96.0849 39.5343 96.3427 39.0659 96.2415C35.325 95.4315 31.6557 94.4379 29.0165 91.3815C27.3965 89.4996 26.7768 87.1965 26.6567 84.7827C26.3867 79.4475 26.5716 74.1177 26.8713 68.7811C27.1656 63.5701 27.6683 58.378 28.3793 53.2048C28.5305 52.1154 28.6641 51.0192 28.8855 49.9432C29.1731 48.5473 29.8521 48.2274 31.1562 48.8349C32.0445 49.2507 32.9585 49.468 33.9345 49.3546C34.1681 49.3276 34.5042 49.3398 34.484 48.9496C34.4678 48.6297 34.2329 48.5325 33.9588 48.465C28.1039 47.0272 25.0313 43.0258 23.819 37.3626C23.4437 35.6076 23.5922 33.8404 24.143 32.1219C25.628 27.4981 29.7725 25.3719 34.3233 27.0648C39.1077 28.8441 41.7348 32.512 42.8378 37.3815C43.1078 38.5789 43.1172 39.7939 43.0241 41.0143C42.9957 41.3788 42.9768 41.9296 43.3197 42.0133C43.718 42.1105 43.8435 41.5597 43.9947 41.2398C44.2998 40.5958 44.2917 39.8992 44.2647 39.1986C44.1945 37.5637 44.6886 37.0224 46.3235 37.0291C54.356 37.0615 62.3885 36.967 70.4102 37.5948C73.7903 37.8768 77.1436 38.4184 80.4407 39.2148C81.2507 39.4078 82.0971 39.5158 82.8963 39.7642C84.33 40.2111 85.2156 41.1223 85.217 42.7342C85.2374 43.3413 85.3092 43.9456 85.4316 44.5405C85.4667 44.7403 85.5261 45.0589 85.815 45.0306C86.0621 45.0063 86.1633 44.7376 86.2038 44.5081C86.2642 44.2252 86.2914 43.9361 86.2848 43.6468C85.9797 38.2252 89.0307 33.3355 94.0068 31.2822C98.6819 29.353 103.322 32.053 103.959 37.0737C104.758 43.3674 101.113 48.9807 95.0166 50.8437C94.586 50.9638 94.1661 51.084 94.0527 51.6307ZM39.7827 38.3062C39.5532 35.2012 38.1236 32.2245 34.7688 30.4857C31.5464 28.8144 28.0877 30.3048 26.9388 33.75C25.956 36.6916 27.0941 40.4878 29.6766 42.7302C31.2264 44.0802 32.9666 45.0805 35.1104 44.8092C38.0237 44.4406 39.7787 42.1389 39.7868 38.3062H39.7827ZM94.0338 47.4957C94.4395 47.5071 94.8451 47.4704 95.2421 47.3863C99.1571 46.4791 102.042 42.2671 101.536 38.1699C101.063 34.3602 97.3035 32.2852 93.8408 33.9214C92.2044 34.6983 90.8649 35.9859 90.0241 37.5903C89.1833 39.1947 88.8868 41.029 89.1792 42.8166C89.672 45.684 91.5458 47.4916 94.0379 47.4957H94.0338Z" fill="#0C9046"/>
<path d="M74.0338 17.7242C74.8708 16.9817 74.3821 15.1079 76.21 15.4427C77.5992 15.6965 78.0298 16.1177 78.2755 17.442C78.8155 16.3283 79.689 16.2365 80.7231 16.497C82.3512 16.902 83.9928 17.253 85.4886 18.0644C87.8173 19.3293 89.2146 21.2504 89.5102 23.8883C89.71 25.6703 90.2541 27.3983 90.2257 29.2181C90.2082 30.3588 89.8572 31.3916 88.95 32.0531C87.5379 33.0751 86.7738 34.4899 86.1622 36.0451C86.1116 36.1803 86.0539 36.3128 85.9894 36.442C85.7775 36.847 85.4683 37.0535 84.9945 36.8888C84.5206 36.7241 84.5206 36.3772 84.6057 35.9708C84.9256 34.4301 84.904 32.838 84.5422 31.3066C83.4136 26.3979 78.0001 24.0003 73.3372 26.3858C71.4783 27.3308 71.7631 27.0095 71.0962 25.5434C69.5019 22.0334 66.7668 19.8059 63.1893 18.5639C62.4846 18.3195 62.4508 18.0752 62.7667 17.4839C63.6834 15.7707 65.0901 14.8311 67.0219 14.8041C68.6419 14.7825 70.2619 14.846 71.8819 14.9486C73.5019 15.0512 74.0122 15.7289 74.0338 17.7242Z" fill="#0C9046"/>
<path d="M70.7724 29.7918C70.7521 30.9217 70.717 31.9072 70.3863 32.8509C70.0056 33.9309 69.4102 34.3737 68.2816 34.236C63.1827 33.6177 58.0608 33.4381 52.9322 33.3544C51.7968 33.3355 51.3513 32.8941 51.1772 31.7344C50.5629 27.4752 52.7229 23.3833 56.6379 21.3894C60.7486 19.2969 65.2441 19.8612 68.098 22.8825C69.9624 24.8494 70.7481 27.2565 70.7724 29.7918ZM67.0504 24.5862C67.041 23.1822 66.0433 22.2129 64.6083 22.2142C63.0963 22.2142 62.1634 23.1592 62.1783 24.655C62.1931 26.1508 63.1408 27.1012 64.6299 27.0931C66.0474 27.085 67.0626 26.0347 67.0531 24.5862H67.0504Z" fill="#0C9046"/>
<path d="M48.5904 94.1692C49.9795 94.2111 51.3659 94.3042 52.7605 94.2151C53.8175 94.1449 54.2158 94.5256 54.3805 95.5948C54.6599 97.4281 54.9138 99.2641 55.173 101.099C55.2472 101.621 55.154 102.091 54.6518 102.376C51.8574 103.965 48.9994 105.335 45.6622 105.165C44.7907 105.137 43.9273 104.988 43.0972 104.721C42.2967 104.451 41.862 103.895 41.8728 103.025C41.8998 100.881 41.8998 98.7363 41.9592 96.5925C42.0091 94.7997 42.6342 94.2097 44.4121 94.1625C45.1087 94.1449 45.804 94.1625 46.5006 94.1625L48.5904 94.1692Z" fill="#0C9046"/>
<path d="M61.5693 97.335C60.3232 97.335 59.0745 97.3094 57.8298 97.3431C56.9523 97.3688 56.5608 96.9192 56.4379 96.1281C56.4204 96.0147 56.419 95.8973 56.4096 95.7825C56.2746 94.1504 56.2908 94.2395 57.9621 94.2422C60.8578 94.2422 63.7536 94.1274 66.6493 94.0248C74.2093 93.7548 81.7437 93.1203 89.2564 92.2361C89.4279 92.2158 89.5966 92.1699 89.7681 92.1389C91.0317 91.9161 91.4488 92.1389 91.6351 93.1689C91.8768 94.4865 91.5136 95.1143 90.2554 95.2533C86.8804 95.6219 83.5149 95.9837 80.1304 96.251C75.2502 96.6357 70.3645 96.953 65.4775 97.2567C64.1775 97.3391 62.8693 97.2702 61.5625 97.2702L61.5693 97.335Z" fill="#0C9046"/>
<path d="M97.4049 99.5382C97.116 99.5382 96.8244 99.5611 96.5368 99.5382C94.4119 99.3505 93.9502 98.8456 93.9475 96.7099C93.9475 95.6043 93.7451 94.5189 93.5817 93.4335C93.3995 92.2279 93.7167 91.669 94.9641 91.4085C96.0967 91.1695 97.2523 91.0467 98.3823 90.7983C100.362 90.3667 102.282 89.6929 104.097 88.7922C105.273 88.2076 105.639 88.4007 105.852 89.6751C106.076 90.9886 106.334 92.2833 106.818 93.5374C107.29 94.7524 107.034 95.7798 106.008 96.4669C103.418 98.2165 100.607 99.4545 97.4049 99.5382Z" fill="#0C9046"/>
<path d="M91.8213 23.0377C91.0221 21.7201 90.8129 20.4457 91.7471 19.2942C92.9526 17.8092 94.2635 16.3971 95.9321 15.4048C97.571 14.4328 99.0047 14.6934 100.117 16.2432C100.942 17.3947 101.671 18.6219 102.127 19.9813C103.125 22.9513 101.772 25.3543 98.6874 25.9483C96.8925 26.2958 95.0608 26.4142 93.2361 26.3007C92.6961 26.2669 92.2263 26.1144 92.8433 25.5069C93.1268 25.2274 93.093 25.0114 92.9067 24.7036C92.7455 24.4577 92.6564 24.1716 92.6495 23.8776C92.6426 23.5837 92.7181 23.2937 92.8676 23.0404C93.5007 21.9699 94.0974 20.8683 94.9587 19.9516C95.3907 19.4926 95.8902 19.1241 96.5652 19.2969C97.2645 19.4764 97.5575 20.0299 97.7276 20.6847C98.2244 22.5976 97.355 23.9152 95.3259 24.3202C94.6172 24.4552 93.8544 24.4674 93.1254 25.1572C94.5186 25.1032 95.7228 25.1289 96.8865 24.7846C98.6712 24.2554 99.4677 22.7137 99.0263 20.7063C98.975 20.4803 98.9073 20.2583 98.8238 20.0421C97.8909 17.5648 95.8646 17.2233 94.2041 19.2861C93.2942 20.416 92.6057 21.6958 91.8213 23.0377Z" fill="#0C9046"/>
<path d="M83.4785 34.1267C83.4785 34.182 83.4596 34.3845 83.4367 34.5857C83.2531 36.1517 82.8697 36.3866 81.3253 36.0612C80.1103 35.8034 78.8737 35.6265 77.6411 35.4524C75.9995 35.2215 75.7052 34.9434 75.5149 33.2924C75.3718 32.0612 75.0505 31.7385 73.8085 31.4577C73.2685 31.3362 72.4963 31.4186 72.3505 30.7409C72.2047 30.0632 72.7555 29.5475 73.2631 29.1708C75.2746 27.6858 77.4481 27.4158 79.7363 28.4567C82.0246 29.4975 83.4866 31.7021 83.4785 34.1267Z" fill="#0C9046"/>
<path d="M53.295 17.6701C53.2699 18.0786 53.3484 18.4867 53.5231 18.8568C53.754 19.3617 53.6284 19.7302 53.2045 20.0718C52.7806 20.4133 52.3581 20.4768 51.8545 20.1744C50.2075 19.1794 49.5595 17.3569 50.3695 15.5992C51.1795 13.8415 52.431 12.37 53.9281 11.1672C55.4253 9.96431 57.372 10.21 58.6855 11.6626C59.7763 12.8695 60.3055 14.391 60.9022 15.8611C61.2195 16.6455 60.6471 17.2678 60.1246 17.7511C59.7196 18.1291 59.482 17.7511 59.3484 17.3394C59.1189 16.6252 58.9191 15.8949 58.6099 15.2158C57.9241 13.7092 56.3149 13.3056 55.0122 14.3059C53.9173 15.1456 53.3706 16.2972 53.295 17.6701Z" fill="#0C9046"/>
<path d="M107.53 87.723C107.53 86.6687 107.97 86.0639 108.892 85.833C110.08 85.5441 111.306 85.5455 112.517 85.5036C113.309 85.4766 113.732 86.1152 113.327 86.7983C112.356 88.4601 111.111 89.9154 109.498 90.9833C108.83 91.4274 108.347 90.9941 108.054 90.3744C107.642 89.505 107.597 88.5452 107.53 87.723Z" fill="#0C9046"/>
<path d="M54.4966 17.7296C54.583 16.9196 54.8327 16.0393 55.6198 15.4251C56.4622 14.7663 57.3748 15.0066 57.7866 15.9799C58.5223 17.7012 58.2577 18.1886 56.3852 18.545C56.1031 18.6003 55.8182 18.6462 55.5374 18.7043C54.6923 18.8825 54.4844 18.7137 54.4966 17.7296Z" fill="#0C9046"/>
<path d="M39.787 38.3063C39.7789 42.1389 38.0239 44.4406 35.1133 44.8092C32.9695 45.0792 31.2294 44.0748 29.6796 42.7302C27.097 40.4878 25.959 36.6917 26.9418 33.75C28.092 30.3048 31.5507 28.8144 34.7718 30.4857C38.1279 32.2245 39.5575 35.1972 39.787 38.3063ZM29.5621 36.6768C29.5621 39.5928 31.5561 42.4561 34.0671 43.1703C34.5208 43.2983 34.9962 43.3302 35.4629 43.2638C35.9296 43.1975 36.3773 43.0344 36.7773 42.7851C37.1774 42.5358 37.521 42.2057 37.7861 41.8159C38.0512 41.4261 38.232 40.9853 38.3169 40.5216C38.8663 37.4936 36.6024 33.8675 33.6472 33.0453C33.0532 32.8793 32.4633 32.8091 31.849 32.9886C30.3816 33.4179 29.5581 34.7274 29.5621 36.6768Z" fill="#FAFBFA"/>
<path d="M94.0379 47.4971C91.5458 47.4971 89.6707 45.684 89.1779 42.8166C88.8855 41.029 89.1821 39.1948 90.0229 37.5904C90.8637 35.986 92.2032 34.6983 93.8395 33.9215C97.3063 32.2853 101.066 34.3603 101.534 38.1699C102.041 42.2672 99.1598 46.4792 95.2408 47.3864C94.8455 47.4698 94.4418 47.5069 94.0379 47.4971ZM98.582 40.6647C98.5928 37.1979 96.4733 35.9316 93.8692 37.449C91.9913 38.5439 90.9734 40.2665 90.7642 42.413C90.6292 43.7468 90.9356 44.9942 92.1992 45.7259C93.4358 46.4427 94.6792 46.2011 95.8051 45.441C97.637 44.199 98.4902 42.3995 98.582 40.6647Z" fill="#FAFBFA"/>
<path d="M67.0528 24.5862C67.0622 26.0347 66.0484 27.085 64.6336 27.0931C63.1486 27.1012 62.2036 26.1603 62.182 24.655C62.1604 23.1498 63.0987 22.2156 64.612 22.2142C66.047 22.2129 67.0433 23.1822 67.0528 24.5862Z" fill="#FAFBFA"/>
<path d="M29.562 36.6768C29.562 34.7274 30.3815 33.4179 31.8489 32.9886C32.4632 32.809 33.0531 32.8792 33.6471 33.0453C36.6023 33.8674 38.8662 37.5003 38.3168 40.5216C38.2319 40.9852 38.0511 41.4261 37.786 41.8158C37.5208 42.2056 37.1773 42.5357 36.7772 42.7851C36.3772 43.0344 35.9294 43.1975 35.4627 43.2638C34.996 43.3301 34.5206 43.2983 34.067 43.1703C31.556 42.4561 29.5688 39.5928 29.562 36.6768Z" fill="#0C9046"/>
<path d="M98.5822 40.6647C98.4958 42.3994 97.6372 44.199 95.8012 45.441C94.6753 46.201 93.432 46.4427 92.1954 45.7258C90.9318 44.9941 90.6267 43.7467 90.7604 42.4129C90.9737 40.2664 91.9915 38.5438 93.8653 37.449C96.4681 35.9316 98.5822 37.1979 98.5822 40.6647Z" fill="#0C9046"/>
<path d="M47.1298 111.55C47.3806 111.714 47.6077 111.911 47.8048 112.136C48.0134 112.366 48.1806 112.631 48.2989 112.918C48.4126 113.193 48.4683 113.488 48.4622 113.785C48.4547 114.088 48.3464 114.379 48.1544 114.614C47.8259 114.955 47.4641 115.263 47.0744 115.533C46.4815 115.963 45.8674 116.363 45.2344 116.732C44.4513 117.19 43.6437 117.604 42.8152 117.974C41.9152 118.376 40.9954 118.736 40.0558 119.054C40.5364 119.277 41.0107 119.48 41.4787 119.663C41.9458 119.848 42.3818 120.001 42.7855 120.128C43.1891 120.255 43.5361 120.351 43.829 120.42C44.049 120.48 44.276 120.51 44.504 120.51C44.6741 120.51 44.7821 120.606 44.8321 120.803C44.8805 121.044 44.874 121.293 44.8132 121.531C44.7418 121.85 44.6383 122.161 44.504 122.458C44.3607 122.784 44.1838 123.094 43.9762 123.383C43.7851 123.656 43.5458 123.892 43.2701 124.078C43.0341 124.246 42.7491 124.33 42.4601 124.317C42.0303 124.26 41.6071 124.16 41.1965 124.02C40.666 123.852 40.0895 123.64 39.4726 123.379C38.8556 123.119 38.2225 122.818 37.5826 122.472C36.9427 122.126 36.3298 121.769 35.752 121.4C35.1742 121.032 34.6612 120.674 34.2116 120.33C33.8555 120.07 33.5283 119.772 33.2356 119.443C33.1111 119.319 33.0132 119.172 32.9477 119.009C32.8822 118.847 32.8506 118.673 32.8549 118.498C32.8663 118.117 32.9909 117.749 33.2126 117.441C33.4867 117.063 33.8401 116.75 34.2481 116.524C34.7597 116.234 35.3194 116.038 35.9005 115.946C36.9723 115.76 38.0244 115.475 39.0433 115.094C40.0989 114.707 41.1288 114.254 42.1267 113.736C41.6965 113.626 41.2784 113.521 40.8725 113.422C40.4675 113.322 40.0936 113.229 39.7561 113.143C39.4186 113.058 39.1189 112.984 38.861 112.918L38.2954 112.783C38.2076 112.774 38.1259 112.734 38.0648 112.671C38.0037 112.607 37.9672 112.524 37.9619 112.436C37.9242 112.181 37.9352 111.921 37.9943 111.669C38.0659 111.339 38.1727 111.017 38.3129 110.709C38.457 110.378 38.6338 110.061 38.8408 109.764C39.0237 109.498 39.2412 109.258 39.4874 109.049C39.6796 108.873 39.9268 108.77 40.1867 108.756C40.5634 108.756 41.0696 108.873 41.7109 109.083C42.3521 109.292 43.0096 109.538 43.6954 109.816C44.3812 110.094 45.0332 110.387 45.6596 110.699C46.173 110.94 46.6648 111.225 47.1298 111.55Z" fill="white"/>
<path d="M54.0174 115.235C53.9823 115.865 53.9107 116.549 53.8027 117.289C53.6947 118.024 53.5543 118.763 53.3761 119.507C53.1979 120.251 53.0062 120.982 52.801 121.697C52.5958 122.412 52.3812 123.081 52.1557 123.7C51.9303 124.32 51.7021 124.865 51.474 125.337C51.3001 125.708 51.104 126.069 50.8867 126.417C50.6767 126.698 50.3742 126.897 50.0322 126.978C49.6517 127.074 49.2571 127.101 48.8671 127.058C48.4502 127.015 48.0413 126.914 47.6521 126.758C47.2865 126.618 46.9459 126.42 46.6437 126.171C46.397 125.976 46.2034 125.722 46.0807 125.432C46.0318 125.305 46.0185 125.167 46.0422 125.032C46.066 124.898 46.126 124.773 46.2157 124.67C46.505 124.326 46.7486 123.946 46.9407 123.54C47.1972 123.035 47.4532 122.462 47.7088 121.82C47.9644 121.178 48.2151 120.499 48.4608 119.781C48.7065 119.061 48.9364 118.367 49.1506 117.698C49.3648 117.03 49.5493 116.41 49.7041 115.838C49.8607 115.268 49.98 114.804 50.0619 114.445C50.1078 114.127 50.2716 113.838 50.5209 113.635C50.7546 113.454 51.0307 113.336 51.3228 113.292C51.6335 113.245 51.9503 113.256 52.257 113.324C52.5733 113.39 52.8749 113.513 53.1466 113.687C53.4075 113.856 53.6271 114.08 53.7892 114.345C53.9553 114.611 54.035 114.922 54.0174 115.235Z" fill="white"/>
<path d="M64.7203 124.286C64.8971 124.049 65.0753 123.954 65.2603 124C65.3643 124.034 65.4603 124.089 65.5427 124.16C65.6251 124.232 65.692 124.32 65.7395 124.419C65.8951 124.697 66.0092 124.997 66.0784 125.308C66.1687 125.674 66.2113 126.05 66.2053 126.426C66.2029 126.804 66.1446 127.18 66.0325 127.541C65.9304 127.883 65.7282 128.187 65.452 128.413C64.841 128.807 64.167 129.092 63.4594 129.257C62.5853 129.48 61.6836 129.574 60.7823 129.538C59.8233 129.503 58.875 129.324 57.9689 129.007C57.0717 128.707 56.2587 128.198 55.597 127.522C54.9286 126.815 54.4645 125.939 54.2537 124.988C54.0053 123.969 54.062 122.761 54.3887 121.364C54.7073 120.007 55.1893 118.924 55.8035 118.103C56.3434 117.354 57.0261 116.719 57.8123 116.235C58.4982 115.821 59.2587 115.546 60.0506 115.425C60.7901 115.312 61.5413 115.296 62.2849 115.379C62.9655 115.453 63.6332 115.617 64.2707 115.866C64.7896 116.056 65.2718 116.333 65.6963 116.686C65.9345 116.958 66.0912 117.292 66.1486 117.65C66.208 118.023 66.208 118.404 66.1486 118.777C66.0925 119.152 65.9895 119.519 65.8421 119.868C65.7161 120.175 65.5514 120.464 65.3521 120.729C65.2141 120.926 65.0282 121.084 64.8121 121.188C64.7756 121.208 64.7356 121.22 64.6944 121.223C64.6532 121.227 64.6117 121.223 64.5723 121.21C64.5329 121.197 64.4964 121.177 64.465 121.15C64.4336 121.123 64.4079 121.09 64.3895 121.053C64.0731 120.542 63.6036 120.143 63.0476 119.914C62.5179 119.685 61.9353 119.608 61.3642 119.69C60.7759 119.78 60.2268 120.04 59.7847 120.439C59.2973 120.857 58.9747 121.468 58.8154 122.28C58.6331 123.279 58.7114 124.093 59.0746 124.71C59.3975 125.304 59.9412 125.745 60.5879 125.94C61.2305 126.133 61.946 126.097 62.7101 125.827C63.519 125.526 64.2191 124.989 64.7203 124.286Z" fill="white"/>
<path d="M75.4865 115.055C75.7805 115.05 76.0739 115.084 76.3586 115.158C76.6579 115.23 76.9425 115.354 77.1997 115.524C77.4472 115.686 77.6585 115.898 77.8207 116.146C77.9854 116.4 78.0614 116.701 78.0367 117.003C77.9631 117.469 77.8442 117.927 77.6816 118.369C77.4778 118.966 77.2091 119.642 76.8716 120.394C76.4955 121.213 76.0764 122.011 75.6161 122.785C75.1202 123.625 74.5834 124.442 74.0056 125.235C74.5132 125.146 75.0073 125.044 75.4906 124.932C75.9739 124.82 76.4059 124.701 76.8028 124.577C77.1997 124.452 77.5331 124.335 77.8099 124.227C78.0203 124.153 78.2197 124.051 78.4025 123.923C78.5375 123.826 78.682 123.845 78.8332 123.979C79.0081 124.151 79.1427 124.36 79.2274 124.59C79.3485 124.895 79.4389 125.212 79.4974 125.535C79.5646 125.885 79.5958 126.24 79.5905 126.596C79.588 126.929 79.5263 127.258 79.4083 127.568C79.3117 127.839 79.1273 128.069 78.8845 128.223C78.505 128.418 78.107 128.576 77.6965 128.693C77.174 128.855 76.5908 129.005 75.9509 129.14C75.311 129.275 74.6347 129.384 73.9259 129.464C73.2172 129.543 72.5354 129.599 71.8726 129.62C71.2097 129.642 70.6063 129.643 70.0622 129.62C69.6377 129.61 69.2157 129.552 68.804 129.447C68.6362 129.416 68.4767 129.35 68.3357 129.254C68.1946 129.158 68.0751 129.033 67.9846 128.889C67.7843 128.567 67.6807 128.195 67.6862 127.817C67.6928 127.35 67.7981 126.89 67.9954 126.467C68.2354 125.939 68.5678 125.459 68.9768 125.049C69.7216 124.282 70.3957 123.448 70.991 122.56C71.6152 121.639 72.1824 120.681 72.6893 119.691C72.2852 119.845 71.8942 119.996 71.5162 120.145L70.4767 120.55L69.6451 120.874C69.4048 120.967 69.2293 121.036 69.1213 121.082C69.0468 121.124 68.9595 121.137 68.8757 121.12C68.7919 121.102 68.7174 121.054 68.6663 120.986C68.4949 120.796 68.3607 120.576 68.2708 120.336C68.1458 120.024 68.0531 119.7 67.994 119.368C67.9265 119.012 67.8926 118.651 67.8928 118.288C67.8911 117.966 67.9296 117.644 68.0075 117.331C68.0606 117.08 68.1978 116.855 68.3963 116.693C68.6947 116.481 69.1564 116.288 69.7787 116.092C70.4011 115.896 71.0585 115.727 71.7592 115.568C72.4598 115.409 73.1456 115.281 73.822 115.182C74.3721 115.092 74.9291 115.049 75.4865 115.055Z" fill="white"/>
<path d="M83.2029 114.191C83.5332 114.731 83.8635 115.335 84.1938 116.004C84.5241 116.673 84.8265 117.363 85.101 118.074C85.371 118.787 85.6275 119.497 85.8705 120.203C86.1135 120.908 86.3146 121.58 86.4739 122.219C86.6386 122.858 86.7606 123.435 86.8398 123.953C86.9091 124.358 86.9541 124.768 86.9748 125.179C86.959 125.529 86.8215 125.863 86.586 126.124C86.3254 126.418 86.0151 126.664 85.6693 126.85C85.3007 127.053 84.9053 127.202 84.4948 127.294C84.1157 127.387 83.7239 127.416 83.3352 127.382C83.0229 127.36 82.7211 127.261 82.4577 127.092C82.345 127.015 82.2552 126.909 82.1981 126.786C82.1411 126.662 82.1188 126.525 82.1337 126.39C82.1741 125.942 82.1587 125.491 82.0878 125.048C82.0113 124.488 81.8965 123.871 81.7435 123.196C81.5905 122.521 81.4105 121.819 81.2035 121.091C81.0001 120.36 80.7958 119.658 80.5906 118.985C80.3854 118.312 80.1856 117.696 79.9912 117.137C79.7968 116.58 79.6317 116.13 79.4958 115.787C79.351 115.498 79.3202 115.165 79.4094 114.854C79.4989 114.573 79.6582 114.32 79.8724 114.118C80.1011 113.904 80.3669 113.734 80.6568 113.616C80.9569 113.491 81.277 113.422 81.6018 113.411C81.9143 113.398 82.2257 113.456 82.513 113.58C82.8002 113.708 83.041 113.921 83.2029 114.191Z" fill="white"/>
<path d="M97.3901 115.425C97.405 115.125 97.5022 114.942 97.6858 114.872C97.7924 114.837 97.9048 114.825 98.0163 114.835C98.1278 114.845 98.2362 114.877 98.3351 114.93C98.6266 115.064 98.8964 115.241 99.1356 115.455C99.4212 115.701 99.6731 115.984 99.8849 116.296C100.099 116.608 100.264 116.952 100.375 117.314C100.483 117.659 100.483 118.028 100.375 118.373C100.078 119.062 99.667 119.696 99.16 120.249C98.5435 120.942 97.8322 121.545 97.0472 122.04C96.217 122.57 95.3132 122.975 94.3648 123.242C93.4421 123.515 92.4678 123.566 91.5217 123.39C90.5633 123.193 89.6767 122.739 88.9567 122.077C88.1696 121.381 87.5284 120.354 87.0059 119.019C86.497 117.72 86.2823 116.555 86.3309 115.529C86.3539 114.602 86.5609 113.69 86.9398 112.844C87.2799 112.105 87.762 111.44 88.3586 110.886C88.917 110.363 89.5399 109.914 90.2122 109.548C90.8331 109.21 91.4945 108.953 92.1805 108.782C92.7294 108.63 93.2997 108.571 93.868 108.608C94.2266 108.687 94.5548 108.867 94.813 109.129C95.0792 109.397 95.2987 109.708 95.4623 110.049C95.63 110.392 95.7521 110.755 95.8255 111.129C95.8933 111.457 95.9182 111.792 95.8997 112.126C95.8935 112.37 95.8257 112.609 95.7026 112.821C95.6826 112.859 95.6553 112.892 95.6224 112.919C95.5894 112.947 95.5514 112.967 95.5105 112.98C95.4697 112.992 95.4267 112.997 95.3842 112.992C95.3416 112.988 95.3003 112.976 95.2625 112.956C94.689 112.72 94.0561 112.669 93.4522 112.81C92.8705 112.937 92.3332 113.217 91.8956 113.62C91.4518 114.033 91.1363 114.566 90.9871 115.154C90.817 115.779 90.8899 116.47 91.2233 117.226C91.6405 118.152 92.1683 118.776 92.8352 119.077C93.4533 119.379 94.165 119.427 94.8184 119.212C95.4731 118.996 96.0604 118.548 96.5558 117.877C97.0697 117.16 97.36 116.307 97.3901 115.425Z" fill="white"/>
</g>
</svg>
